<?xml version="1.0" encoding="UTF-8" standalone="no"?>
<!-- Created with Inkscape (http://www.inkscape.org/) -->

<svg
   version="1.1"
   id="svg2"
   width="138.84914"
   height="116.12705"
   viewBox="0 0 138.84914 116.12705"
   sodipodi:docname="twizo_logo_base.svg"
   inkscape:version="1.3 (0e150ed6c4, 2023-07-21)"
   inkscape:export-filename="twizo_logo_base.png"
   inkscape:export-xdpi="300"
   inkscape:export-ydpi="300"
   xmlns:inkscape="http://www.inkscape.org/namespaces/inkscape"
   xmlns:sodipodi="http://sodipodi.sourceforge.net/DTD/sodipodi-0.dtd"
   xmlns="http://www.w3.org/2000/svg"
   xmlns:svg="http://www.w3.org/2000/svg">
  <defs
     id="defs6" />
  <sodipodi:namedview
     id="namedview4"
     pagecolor="#ffffff"
     bordercolor="#000000"
     borderopacity="0.25"
     inkscape:showpageshadow="2"
     inkscape:pageopacity="0.0"
     inkscape:pagecheckerboard="0"
     inkscape:deskcolor="#d1d1d1"
     inkscape:zoom="2.8767212"
     inkscape:cx="111.58537"
     inkscape:cy="85.687831"
     inkscape:window-width="1920"
     inkscape:window-height="1009"
     inkscape:window-x="-8"
     inkscape:window-y="-8"
     inkscape:window-maximized="1"
     inkscape:current-layer="g8" />
  <g
     id="g8"
     inkscape:groupmode="layer"
     inkscape:label="ink_ext_XXXXXX"
     transform="matrix(1.3333333,0,0,-1.3333333,-92.136331,78.740595)">
    <text
       xml:space="preserve"
       style="font-style:normal;font-variant:normal;font-weight:normal;font-stretch:normal;font-size:56px;line-height:0.85;font-family:Univers;-inkscape-font-specification:Univers;text-align:center;letter-spacing:-2.25px;text-anchor:middle;fill:#231f20;fill-opacity:1;stroke-width:18.4252;stroke-linecap:round;stroke-linejoin:round"
       x="112.96077"
       y="-8.5177221"
       id="text2"
       transform="scale(1,-1)"><tspan
         sodipodi:role="line"
         id="tspan2"
         style="font-size:56px;line-height:0.85;letter-spacing:-2.25px;fill:#231f20;fill-opacity:1;stroke-width:18.4252"
         x="111.83577"
         y="-8.5177221"><tspan
   style="fill:#c60c30;fill-opacity:1"
   id="tspan13">T</tspan>W</tspan></text>
    <text
       xml:space="preserve"
       style="font-style:normal;font-variant:normal;font-weight:normal;font-stretch:normal;font-size:11px;line-height:0.85;font-family:Univers;-inkscape-font-specification:Univers;text-align:center;letter-spacing:-1.125px;text-anchor:middle;fill:#231f20;fill-opacity:1;stroke-width:18.6496;stroke-linecap:round;stroke-linejoin:round"
       x="-2.3484983"
       y="-165.295"
       id="text1"
       transform="matrix(0,-0.99999851,-1.0000015,0,0,0)"><tspan
         sodipodi:role="line"
         id="tspan1"
         style="font-size:11px;line-height:0.85;letter-spacing:-1.125px;fill:#231f20;fill-opacity:1;stroke-width:18.6496"
         x="-2.9109983"
         y="-165.295">custom <tspan
   style="fill:#c60c30;fill-opacity:1"
   id="tspan17">Z</tspan>otero</tspan></text>
    <g
       id="g10"
       transform="matrix(0.04560206,0,0,0.04560206,37.238068,82.239347)">
      <path
         d="m 792.32635,-612.11488 c 0,-39.367 -16.285,-51.856 -46.883,-51.856 -35.063,0 -46.699,17.422 -46.699,53.719 v 98.945 h 23.062 v -97.148 c 0,-13.25 -0.867,-38.184 23.813,-38.184 20.371,0 24.019,14.805 24.019,37.161 v 98.171 h 22.688 v -100.808"
         style="fill:#231f20;fill-opacity:1;fill-rule:nonzero;stroke:none"
         id="path12" />
      <path
         d="m 2464.4424,-661.30688 -45.14,129.61 v -129.61 h -19.37 v 150 h 33.85 l 45.15,-129.609 v 129.609 h 20.77 v -150 h -35.26"
         style="fill:#231f20;fill-opacity:1;fill-rule:nonzero;stroke:none"
         id="path14" />
      <path
         d="m 887.03735,-661.30688 -45.141,129.61 v -129.61 h -19.363 v 150 h 33.844 l 45.152,-129.609 v 129.609 h 20.773 v -150 h -35.265"
         style="fill:#231f20;fill-opacity:1;fill-rule:nonzero;stroke:none"
         id="path16" />
      <path
         d="m 957.25535,-661.30688 v 150 h 23.262 v -150 h -23.262"
         style="fill:#231f20;fill-opacity:1;fill-rule:nonzero;stroke:none"
         id="path18" />
      <path
         d="m 1451.7204,-661.30688 v 150 h 23.262 v -150 h -23.262"
         style="fill:#231f20;fill-opacity:1;fill-rule:nonzero;stroke:none"
         id="path20" />
      <path
         d="m 1064.5764,-661.30688 h -27.344 l -37.91005,150 h 24.19905 l 28.449,-128.789 29.5,128.789 h 22.676 l -39.57,-150"
         style="fill:#231f20;fill-opacity:1;fill-rule:nonzero;stroke:none"
         id="path22" />
      <path
         d="m 1122.4624,-661.30688 v 150 h 74.278 v -17.929 h -51.223 v -45.742 h 47.903 v -17.325 h -47.903 v -51.074 h 52.668 v -17.93 h -75.723"
         style="fill:#231f20;fill-opacity:1;fill-rule:nonzero;stroke:none"
         id="path24" />
      <path
         d="m 2297.3024,-661.30688 v 150 h 74.28 v -17.929 h -51.22 v -45.742 h 47.9 v -17.325 h -47.9 v -51.074 h 52.67 v -17.93 h -75.73"
         style="fill:#231f20;fill-opacity:1;fill-rule:nonzero;stroke:none"
         id="path26" />
      <path
         d="m 2629.6124,-661.30688 v 150 h 74.28 v -17.929 h -51.22 v -45.742 h 47.9 v -17.325 h -47.9 v -51.074 h 52.67 v -17.93 h -75.73"
         style="fill:#231f20;fill-opacity:1;fill-rule:nonzero;stroke:none"
         id="path28" />
      <path
         d="m 1286.8574,-551.09188 c 0,17.375 -9.184,22.246 -23.711,22.246 h -15.559 v -48.027 h 12.122 c 19.875,0 27.148,5.273 27.148,25.781 z m 0.32,-110.215 c -2.113,14.375 -2.129,36.485 -2.285,39.258 -0.547,11.231 -2,18.418 -4.351,21.621 -2.754,4.004 -9.114,6.016 -19.067,6.016 h -13.887 v -66.895 h -23.242 v 150 h 43.125 c 24.809,0 42.922,-5.957 42.922,-37.968 0,-20.196 -8.183,-32.305 -24.519,-36.309 8.425,-0.691 14.238,-3.594 17.41,-8.711 2.5,-3.887 4.773,-12.82 4.773,-24.031 0,-4.277 0.903,-33.566 3.11,-42.981 h -23.989"
         style="fill:#231f20;fill-opacity:1;fill-rule:nonzero;stroke:none"
         id="path30" />
      <path
         d="m 1423.2634,-623.53288 c 0,-26.953 -14.746,-40.438 -44.211,-40.438 -32.976,0 -44.402,13.243 -44.402,44.735 v 1.64 h 23.809 v -1.64 c 0,-17.813 4.566,-27.598 20.586,-27.598 13.718,0 20.585,7.149 20.585,21.445 0,12.766 -7.75,18.789 -14.328,23.067 -3.172,2.07 -7.39,4.707 -12.664,7.91 -22.148,13.633 -35.898,22.687 -35.898,47.012 0,24.824 15.359,38.945 43.945,38.945 27.371,0 41.055,-12.48 41.055,-37.461 v -5.391 h -23.262 v 3.731 c 0,14.531 -6.269,21.777 -18.848,21.777 -11.39,0 -19.265,-6.551 -19.265,-19.941 0,-14.871 10.594,-19.735 20.555,-26.152 3.457,-2.208 6.992,-4.493 10.585,-6.836 23.489,-15 31.758,-21.844 31.758,-44.805"
         style="fill:#231f20;fill-opacity:1;fill-rule:nonzero;stroke:none"
         id="path32" />
      <path
         d="m 1552.0824,-529.23588 v -132.071 h -23.237 v 132.071 h -34.629 v 17.929 h 92.496 v -17.929 h -34.63"
         style="fill:#231f20;fill-opacity:1;fill-rule:nonzero;stroke:none"
         id="path34" />
      <path
         d="m 2064.0724,-529.23588 v -132.071 h -23.24 v 132.071 h -34.63 v 17.929 h 92.5 v -17.929 h -34.63"
         style="fill:#231f20;fill-opacity:1;fill-rule:nonzero;stroke:none"
         id="path36" />
      <path
         d="m 2576.0324,-529.23588 v -132.071 h -23.24 v 132.071 h -34.63 v 17.929 h 92.5 v -17.929 h -34.63"
         style="fill:#231f20;fill-opacity:1;fill-rule:nonzero;stroke:none"
         id="path38" />
      <path
         d="m 2245.3924,-661.30688 h -27.14 l -23.41,125.86 -25.9,-125.86 h -27.14 l -31.91,150 h 24.58 l 22.2,-125.449 25.71,125.449 h 27.15 l 23.65,-125.449 23.85,125.449 h 21.72 l -33.36,-150"
         style="fill:#231f20;fill-opacity:1;fill-rule:nonzero;stroke:none"
         id="path40" />
      <path
         d="m 1653.9224,-604.05988 v -57.254 h -23.25 v 57.254 l -39.42,92.753 h 25.73 l 26.97,-71.589 27.6,71.589 h 23.86 l -41.49,-92.753"
         style="fill:#231f20;fill-opacity:1;fill-rule:nonzero;stroke:none"
         id="path44" />
      <path
         d="m 1825.1724,-584.95888 c 0,18.117 -0.62,30.637 -1.86,37.559 -2.77,14.386 -10.18,21.574 -22.21,21.574 -11.9,0 -19.44,-7.609 -22.61,-22.824 -0.56,-2.762 -0.98,-7.196 -1.25,-13.282 -0.28,-6.082 -0.41,-13.972 -0.41,-23.652 0,-8.992 0.1,-16.531 0.31,-22.617 0.2,-6.082 0.58,-10.789 1.14,-14.109 1.24,-8.165 3.45,-14.18 6.64,-18.047 3.45,-4.289 8.85,-6.438 16.18,-6.438 12.31,0 19.78,7.746 22.41,23.242 0.55,3.184 0.97,7.95 1.25,14.317 0.27,6.359 0.41,14.453 0.41,24.277 z m 24.07,-2.695 c 0,-27.117 -2.36,-45.438 -7.06,-54.988 -6.78,-14.25 -20.68,-21.368 -41.7,-21.368 -20.06,0 -33.48,6.844 -40.26,20.535 -2.76,5.813 -4.7,13.352 -5.8,22.618 -0.83,7.062 -1.25,18.058 -1.25,32.988 0,18.125 0.62,31.262 1.87,39.426 1.66,11.211 5.18,20.058 10.58,26.562 7.75,8.985 19.57,13.485 35.48,13.485 16.18,0 28.01,-4.082 35.48,-12.246 5.53,-5.946 9.13,-14.793 10.79,-26.551 1.25,-8.164 1.87,-21.653 1.87,-40.461"
         style="fill:#231f20;fill-opacity:1;fill-rule:nonzero;stroke:none"
         id="path46" />
      <path
         d="m 1901.6624,-529.15788 v -46.063 h 44.4 v -17.421 h -44.4 v -68.672 h -23.03 v 150.007 h 69.92 v -17.851 h -46.89"
         style="fill:#231f20;fill-opacity:1;fill-rule:nonzero;stroke:none"
         id="path48" />
    </g>
    <text
       xml:space="preserve"
       style="font-style:normal;font-variant:normal;font-weight:normal;font-stretch:normal;font-size:56px;line-height:0.85;font-family:Univers;-inkscape-font-specification:Univers;text-align:end;letter-spacing:-10.5px;text-anchor:end;display:inline;fill:#231f20;fill-opacity:1;stroke-width:18.4252;stroke-linecap:round;stroke-linejoin:round"
       x="148.53146"
       y="27.082815"
       id="text10"
       transform="scale(1,-1)"><tspan
         sodipodi:role="line"
         id="tspan10"
         style="letter-spacing:-10.5px;fill:#231f20;fill-opacity:1;stroke-width:18.4252"
         x="138.03146"
         y="27.082815">Z<tspan
   style="fill:#c60c30;fill-opacity:1"
   id="tspan12">O</tspan></tspan></text>
    <text
       xml:space="preserve"
       style="font-style:normal;font-variant:normal;font-weight:normal;font-stretch:normal;font-size:56px;line-height:0.85;font-family:Univers;-inkscape-font-specification:Univers;text-align:end;letter-spacing:-10.5px;text-anchor:end;fill:#c60c30;fill-opacity:1;stroke-width:18.4252;stroke-linecap:round;stroke-linejoin:round"
       x="165.6385"
       y="-8.5177221"
       id="text11"
       transform="scale(1,-1)"><tspan
         sodipodi:role="line"
         id="tspan11"
         style="fill:#c60c30;fill-opacity:1;stroke-width:18.4252"
         x="155.1385"
         y="-8.5177221">I</tspan></text>
    <text
       xml:space="preserve"
       style="font-style:normal;font-variant:normal;font-weight:normal;font-stretch:normal;font-size:6px;line-height:0.85;font-family:Univers;-inkscape-font-specification:Univers;text-align:end;letter-spacing:-0.375px;text-anchor:end;fill:#c60c30;fill-opacity:1;stroke-width:18.4252;stroke-linecap:round;stroke-linejoin:round"
       x="99.680252"
       y="-13.294944"
       id="text14"
       transform="scale(1,-1)"><tspan
         sodipodi:role="line"
         id="tspan14"
         style="font-size:6px;letter-spacing:-0.375px;fill:#000000;stroke-width:18.4252"
         x="99.305252"
         y="-13.294944">v0.1</tspan></text>
    <text
       xml:space="preserve"
       style="font-style:normal;font-variant:normal;font-weight:normal;font-stretch:normal;font-size:3.01901px;line-height:0.85;font-family:Univers;-inkscape-font-specification:Univers;text-align:end;letter-spacing:-0.288693px;text-anchor:end;fill:#ffffff;fill-opacity:1;stroke-width:13.9065;stroke-linecap:round;stroke-linejoin:round"
       x="113.56107"
       y="27.082815"
       id="text15"
       transform="scale(1,-1)"><tspan
         sodipodi:role="line"
         id="tspan15"
         style="font-style:normal;font-variant:normal;font-weight:normal;font-stretch:normal;font-size:3.01901px;font-family:'Segoe UI';-inkscape-font-specification:'Segoe UI';letter-spacing:-0.288693px;fill:#ffffff;fill-opacity:1;stroke-width:13.9065"
         x="113.27238"
         y="27.082815">s.mok@utwente.nl</tspan></text>
  </g>
</svg>
